<svg width="96" height="96" xmlns="http://www.w3.org/2000/svg" xmlns:xlink="http://www.w3.org/1999/xlink" xml:space="preserve" overflow="hidden"><defs><clipPath id="clip0"><rect x="0" y="0" width="96" height="96"/></clipPath></defs><g clip-path="url(#clip0)"><path d="M49 8.661 15 29.267 15 67.394 49 88 83 67.394 83 29.267ZM80.071 29.831 65.75 38.51 34.679 19.679 49 11ZM49 48.661 17.929 29.831 32.75 20.848 63.821 39.679ZM17 31.605 48 50.394 48 85.055 17 66.267ZM50 85.055 50 50.394 81 31.605 81 66.267Z"/><path d="M54.971 52.115 54 52.7 54 61.365 57.029 59.548 62.029 56.548 63 55.963 63 47.3 59.971 49.117ZM61 54.831 56 57.831 56 53.831 61 50.831Z"/></g></svg>